<svg width="22" height="23" viewBox="0 0 22 23" fill="none" xmlns="http://www.w3.org/2000/svg">
<style>
    :root{
    --m30 : 30px;
    --m50 : 50px;
    --m100 : 100px;
    --m150 : 150px;

    --body : hsl(0, 0%, 5%);
    --background : hsl(0, 0%, 99%);

    --body-dark : hsl(0, 0%, 99%);
    --background-dark : hsl(0, 0%, 5%);

    --secondary-color : hsl(0, 0%, 80%);
}

@media(prefers-color-scheme: dark){
    :root{
        --background : var(--background-dark);
        --body : var(--body-dark);
    }
}
</style>
<path d="M10.82 0.499992C4.84485 0.499992 0 5.47043 0 11.5953C0 16.4981 3.10109 20.6523 7.40011 22.1207C7.46041 22.1338 7.52196 22.1403 7.58366 22.14C7.98458 22.14 8.13915 21.8453 8.13915 21.5893C8.13915 21.3237 8.12949 20.6281 8.12466 19.7007C7.76675 19.7846 7.4006 19.8283 7.033 19.8311C4.95112 19.8311 4.47774 18.2129 4.47774 18.2129C3.98504 16.9329 3.27498 16.5899 3.27498 16.5899C2.33306 15.9282 3.27015 15.9088 3.34261 15.9088H3.34744C4.43427 16.0054 5.00425 17.0585 5.00425 17.0585C5.54525 18.0052 6.2698 18.2709 6.91707 18.2709C7.34506 18.2623 7.76642 18.1636 8.15364 17.9811C8.25025 17.2662 8.53041 16.7783 8.83955 16.4981C6.43887 16.218 3.91259 15.2664 3.91259 11.0157C3.91259 9.80326 4.33283 8.81304 5.02357 8.04018C4.91247 7.76002 4.54054 6.62972 5.12984 5.10332C5.20889 5.08441 5.29013 5.07629 5.37136 5.07917C5.76262 5.07917 6.64657 5.22891 8.10534 6.24329C9.87786 5.74736 11.7525 5.74736 13.525 6.24329C14.9838 5.22891 15.8677 5.07917 16.259 5.07917C16.3402 5.07629 16.4215 5.08441 16.5005 5.10332C17.0898 6.62972 16.7179 7.76002 16.6068 8.04018C17.2975 8.81787 17.7177 9.80809 17.7177 11.0157C17.7177 15.2761 15.1866 16.2132 12.7763 16.4885C13.1627 16.8314 13.5105 17.5077 13.5105 18.5414C13.5105 20.0243 13.496 21.2222 13.496 21.5845C13.496 21.8453 13.6458 22.14 14.0467 22.14C14.1116 22.1403 14.1763 22.1338 14.2399 22.1207C18.5437 20.6523 21.64 16.4933 21.64 11.5953C21.64 5.47043 16.7952 0.499992 10.82 0.499992Z" fill="var(--body)"/>
</svg>
