<svg width="22" height="21" viewBox="0 0 22 21" fill="none" xmlns="http://www.w3.org/2000/svg">
<path d="M5.35967 2.37715C5.35938 2.96324 5.12627 3.52522 4.71163 3.93944C4.297 4.35366 3.73479 4.5862 3.1487 4.58591C2.56261 4.58562 2.00064 4.35251 1.58641 3.93788C1.17219 3.52324 0.939649 2.96103 0.939942 2.37494C0.940235 1.78885 1.17334 1.22688 1.58798 0.812656C2.00261 0.398434 2.56482 0.165891 3.15091 0.166184C3.737 0.166477 4.29897 0.399582 4.7132 0.814219C5.12742 1.22886 5.35996 1.79106 5.35967 2.37715ZM5.42597 6.22231H1.00624V20.0561H5.42597V6.22231ZM12.4091 6.22231H8.01151V20.0561H12.3649V12.7967C12.3649 8.75261 17.6355 8.37693 17.6355 12.7967V20.0561H21.9999V11.294C21.9999 4.47652 14.1991 4.73066 12.3649 8.0786L12.4091 6.22231Z" fill="black"/>
</svg>
